<svg width="500" height="500" viewBox="0 0 500 500" fill="none" xmlns="http://www.w3.org/2000/svg">
<path d="M0.026507 301.952C0.0331336 295.438 0.0397607 288.93 0.0463873 282.417C0.0463873 279.686 0.0463874 276.956 0.053014 274.219C0.053014 274.007 0.086147 273.789 0.106027 273.49C0.596395 273.49 1.05363 273.49 1.51087 273.49C28.4149 273.49 55.3189 273.484 82.2229 273.49C82.7663 273.49 83.3096 273.59 83.8464 273.643C85.6488 275.518 87.4115 277.44 89.2603 279.269C92.2489 282.218 95.3038 285.094 98.3056 288.016C99.3659 289.05 100.347 290.17 101.414 291.203C103.547 293.271 105.721 295.299 107.855 297.36C110.406 299.825 112.937 302.303 115.482 304.781C115.641 304.96 115.793 305.133 115.952 305.311C115.959 305.404 115.966 305.497 115.972 305.596L115.952 305.55L115.906 305.563C115.82 305.576 115.74 305.59 115.654 305.603C115.541 305.656 115.429 305.716 115.323 305.769C115.157 305.795 114.985 305.822 114.819 305.848C114.826 305.808 114.832 305.769 114.839 305.736C114.567 305.133 113.666 305.066 113.169 305.603C112.182 305.623 111.194 305.643 110.2 305.669L105.542 305.623C105.283 305.563 105.025 305.451 104.773 305.457C103.481 305.497 102.189 305.563 100.897 305.623C100.625 305.623 100.353 305.623 100.082 305.623C99.5846 305.623 99.081 305.61 98.584 305.603C98.4183 305.55 98.2526 305.497 98.087 305.437H97.7556C92.2357 305.437 86.7157 305.437 81.1958 305.437C65.7293 305.437 50.2694 305.437 34.8029 305.437C29.5083 305.437 24.2136 305.437 18.9189 305.437C18.634 305.437 18.3557 305.55 18.0707 305.61C17.693 305.557 17.3219 305.444 16.9442 305.457C15.6653 305.484 14.3864 305.557 13.1074 305.61C12.8821 305.61 12.6568 305.61 12.4315 305.61C8.34952 305.603 4.26753 305.59 0.185545 305.583C0.139159 305.371 0.0861467 305.159 0.0397605 304.947C0.0397605 304.834 0.0397604 304.722 0.0331338 304.609C0.0596402 304.377 0.0861459 304.152 0.112652 303.92C0.0927725 303.82 0.0795193 303.721 0.0596395 303.615C0.0397597 303.555 0.0265066 303.496 0.00662675 303.443C0.00662675 303.277 0.0066266 303.111 0 302.946C0 302.727 0.0132537 302.502 0.0198803 302.283C0.0198803 302.17 0.0198803 302.064 0.0198803 301.952H0.026507Z" fill="black"/>
<path d="M115.488 304.781C112.95 302.31 110.412 299.825 107.861 297.359C105.721 295.299 103.547 293.271 101.42 291.203C100.353 290.17 99.3792 289.05 98.3123 288.016C95.3038 285.087 92.2489 282.211 89.267 279.269C87.4181 277.44 85.6555 275.525 83.853 273.643C83.853 246.964 83.853 220.285 83.853 193.607C83.853 192.818 83.853 192.023 83.853 191.248C83.9988 191.228 84.0783 191.201 84.0982 191.221C84.8073 192.083 85.7549 192.136 86.7886 192.136C95.9797 192.109 105.171 192.122 114.362 192.122C115.661 192.122 115.661 192.122 115.661 193.401C115.661 229.145 115.661 264.889 115.661 300.633C115.661 301.13 115.667 301.627 115.674 302.124C115.674 302.508 115.661 302.899 115.654 303.284C115.601 303.787 115.541 304.291 115.488 304.788V304.781Z" fill="#C9CBCE"/>
<path d="M74.5894 264.313C74.5894 264.432 74.596 264.644 74.5761 264.651C74.3044 264.69 74.0261 264.717 73.7544 264.717C49.6203 264.717 25.4929 264.717 1.35878 264.717C1.1401 264.717 0.914799 264.73 0.696121 264.737C0.523829 264.737 0.351537 264.737 0.179246 264.737C0.132859 264.478 0.0467142 264.22 0.0467142 263.962C0.0400876 253.723 0.033461 243.485 0.0467142 233.247C0.0467142 232.969 0.245512 232.697 0.351537 232.419C0.530456 232.439 0.716 232.459 0.894918 232.472C0.941305 232.472 0.981064 232.485 1.00757 232.525C1.00757 233.373 1.59071 233.373 2.20699 233.373C14.9831 233.373 27.7592 233.373 40.5352 233.373C40.8069 233.373 41.072 233.347 41.4431 233.333V232.465C41.6551 232.479 41.8672 232.492 42.0792 232.505C42.2979 232.711 42.5166 232.916 42.7287 233.121C47.142 237.482 51.5487 241.835 55.962 246.196C59.2156 249.41 62.4759 252.623 65.7362 255.831C68.3471 258.402 70.9646 260.966 73.5755 263.531C73.9134 263.796 74.2448 264.061 74.5827 264.326L74.5894 264.313Z" fill="#002485"/>
<path d="M73.5822 263.517C70.9713 260.953 68.3538 258.388 65.7429 255.817C62.4826 252.61 59.2223 249.396 55.9687 246.182C51.5554 241.829 47.1487 237.468 42.7353 233.108C42.5233 232.896 42.3046 232.697 42.0859 232.492C42.0859 226.925 42.0992 221.352 42.1058 215.786C42.1058 207.927 42.1058 200.068 42.1058 192.209V191.082C42.848 191.413 43.4709 191.698 44.0938 191.977C44.1799 192.063 44.2528 192.215 44.3456 192.222C45.5318 192.334 46.7246 192.5 47.9173 192.513C53.106 192.547 58.2946 192.54 63.4832 192.533C66.6441 192.527 69.805 192.487 72.9659 192.434C73.2906 192.434 73.6087 192.215 73.9268 192.096C74.0394 192.427 74.1454 192.765 74.2581 193.097C74.2979 193.766 74.331 194.435 74.3707 195.098C74.3641 195.257 74.3509 195.422 74.3442 195.581C73.6418 195.654 73.9268 196.204 73.9268 196.549C73.9135 216.853 73.9135 237.157 73.9135 257.454C73.9135 258.534 73.9135 259.621 73.9135 260.701C73.9135 260.867 73.9135 261.026 73.9135 261.191L73.5822 263.517Z" fill="#A1AFD9"/>
<path d="M31.9868 222.618C32.1922 222.857 32.4042 223.095 32.7356 223.48C31.6422 223.48 30.6946 223.48 29.7403 223.48C20.3836 223.48 11.0334 223.493 1.67667 223.493C1.59715 223.493 1.51101 223.493 1.43149 223.493C0.490509 223.51 0.0200195 223.027 0.0200195 222.042C0.0332727 212.247 0.0465259 202.453 0.0730323 192.659C0.0730323 192.262 0.139298 191.864 0.185685 191.347C0.848345 191.93 1.34534 192.361 1.84234 192.798C1.98812 193.017 2.1074 193.269 2.29294 193.454C4.80443 195.966 7.31591 198.484 9.8539 200.976C11.0666 202.162 12.3521 203.275 13.5515 204.468C15.8178 206.714 18.0245 209.014 20.2908 211.253C22.2456 213.182 24.2469 215.057 26.215 216.972C28.1433 218.848 30.0584 220.736 31.9801 222.618H31.9868Z" fill="black"/>
<path d="M31.9864 222.618C30.0647 220.736 28.1496 218.848 26.2213 216.972C24.2532 215.057 22.2453 213.182 20.2971 211.254C18.0308 209.014 15.8175 206.714 13.5578 204.468C12.3518 203.275 11.0662 202.162 9.8602 200.976C7.32221 198.484 4.81072 195.966 2.29924 193.454C2.1137 193.269 2.00104 193.017 1.84863 192.798C2.49141 191.963 3.47215 192.176 4.28059 192.156C7.77944 192.076 11.2849 192.116 14.7904 192.116C20.2242 192.116 25.658 192.116 31.0918 192.116C32.2515 192.116 32.3376 192.202 32.3376 193.329C32.3376 202.54 32.3376 211.751 32.3178 220.961C32.3178 221.512 32.1057 222.062 31.9997 222.618H31.9864Z" fill="#C9CBCE"/>
<path d="M121.317 274.99L152.859 191.082H180.28L211.205 274.99H185.431L181.103 261.382H151.207L146.467 274.99H121.317Z" fill="black"/>
<path d="M156.776 242.213L166.261 212.522L175.74 242.213H156.776Z" fill="white"/>
<path d="M221.308 274.99V191.082H253.673L267.898 242.213L281.3 191.082H314.495V274.99H294.084V212.522L276.766 274.99H258.412L241.924 210.67V274.99H221.308Z" fill="black"/>
<path d="M372.347 278.968C396.222 278.968 415.577 259.294 415.577 235.025C415.577 210.756 396.222 191.082 372.347 191.082C348.472 191.082 329.118 210.756 329.118 235.025C329.118 259.294 348.472 278.968 372.347 278.968Z" fill="black"/>
<path d="M372.128 259.874C382.34 259.874 390.619 248.706 390.619 234.929C390.619 221.152 382.34 209.984 372.128 209.984C361.916 209.984 353.637 221.152 353.637 234.929C353.637 248.706 361.916 259.874 372.128 259.874Z" fill="white"/>
<path d="M367.684 251.835L372.128 243.173L417.368 272.658L410.564 286.471L375.928 256.369L367.684 251.835Z" fill="black"/>
<path d="M430.151 191.082H477.983V244.065H455.302V276.848H430.151V191.082Z" fill="black"/>
<path d="M477.297 191.082C477.297 191.082 499.149 191.905 499.979 216.232C500.802 240.56 477.297 244.065 477.297 244.065" fill="black"/>
<path d="M467.881 208.812H454.067V227.364H467.881V208.812Z" fill="white"/>
<path d="M468.429 227.371C472.8 227.371 476.344 223.216 476.344 218.091C476.344 212.966 472.8 208.812 468.429 208.812C464.058 208.812 460.514 212.966 460.514 218.091C460.514 223.216 464.058 227.371 468.429 227.371Z" fill="white"/>
<path d="M123.675 302.074H121.828L127.169 287.529H128.987L134.328 302.074H132.482L128.135 289.83H128.021L123.675 302.074ZM124.357 296.393H131.8V297.955H124.357V296.393ZM140.486 302.302C139.577 302.302 138.774 302.072 138.078 301.613C137.382 301.149 136.838 300.495 136.445 299.653C136.052 298.805 135.855 297.804 135.855 296.648C135.855 295.502 136.052 294.508 136.445 293.665C136.838 292.823 137.385 292.172 138.085 291.712C138.786 291.253 139.596 291.023 140.514 291.023C141.225 291.023 141.786 291.142 142.198 291.378C142.614 291.61 142.931 291.876 143.149 292.174C143.372 292.467 143.545 292.709 143.668 292.898H143.81V287.529H145.486V302.074H143.867V300.398H143.668C143.545 300.597 143.369 300.848 143.142 301.151C142.915 301.449 142.591 301.717 142.169 301.954C141.748 302.186 141.187 302.302 140.486 302.302ZM140.713 300.796C141.386 300.796 141.954 300.621 142.418 300.27C142.882 299.915 143.235 299.425 143.476 298.8C143.717 298.171 143.838 297.444 143.838 296.62C143.838 295.806 143.72 295.093 143.483 294.482C143.246 293.867 142.896 293.388 142.432 293.047C141.968 292.702 141.395 292.529 140.713 292.529C140.003 292.529 139.411 292.711 138.938 293.076C138.469 293.436 138.116 293.926 137.879 294.546C137.647 295.162 137.531 295.853 137.531 296.62C137.531 297.396 137.65 298.102 137.886 298.736C138.128 299.366 138.483 299.868 138.952 300.242C139.425 300.611 140.012 300.796 140.713 300.796ZM157.709 291.165L153.675 302.074H151.97L147.936 291.165H149.754L152.766 299.859H152.879L155.891 291.165H157.709ZM162.799 302.33C162.108 302.33 161.481 302.2 160.917 301.94C160.354 301.674 159.907 301.293 159.575 300.796C159.244 300.294 159.078 299.688 159.078 298.978C159.078 298.353 159.201 297.846 159.447 297.458C159.693 297.065 160.023 296.757 160.434 296.535C160.846 296.312 161.301 296.146 161.798 296.038C162.3 295.924 162.804 295.834 163.311 295.768C163.974 295.682 164.511 295.618 164.923 295.576C165.34 295.529 165.643 295.45 165.832 295.342C166.026 295.233 166.123 295.043 166.123 294.773V294.717C166.123 294.016 165.932 293.471 165.548 293.083C165.169 292.695 164.594 292.501 163.822 292.501C163.022 292.501 162.395 292.676 161.94 293.026C161.486 293.377 161.166 293.751 160.981 294.148L159.39 293.58C159.674 292.917 160.053 292.401 160.527 292.032C161.005 291.658 161.526 291.397 162.089 291.251C162.657 291.099 163.216 291.023 163.765 291.023C164.116 291.023 164.518 291.066 164.973 291.151C165.432 291.232 165.875 291.4 166.301 291.655C166.732 291.911 167.089 292.297 167.373 292.813C167.657 293.329 167.799 294.02 167.799 294.887V302.074H166.123V300.597H166.038C165.924 300.834 165.735 301.087 165.47 301.357C165.205 301.627 164.852 301.857 164.412 302.046C163.971 302.235 163.434 302.33 162.799 302.33ZM163.055 300.824C163.718 300.824 164.277 300.694 164.731 300.434C165.191 300.173 165.536 299.837 165.768 299.425C166.005 299.013 166.123 298.58 166.123 298.126V296.592C166.052 296.677 165.896 296.755 165.655 296.826C165.418 296.892 165.143 296.951 164.831 297.003C164.523 297.051 164.222 297.093 163.929 297.131C163.64 297.164 163.406 297.193 163.226 297.217C162.79 297.273 162.383 297.366 162.004 297.493C161.63 297.617 161.327 297.804 161.095 298.055C160.868 298.301 160.754 298.637 160.754 299.063C160.754 299.645 160.969 300.086 161.4 300.384C161.836 300.678 162.388 300.824 163.055 300.824ZM172.535 295.512V302.074H170.859V291.165H172.478V292.87H172.62C172.876 292.316 173.264 291.871 173.785 291.535C174.306 291.194 174.978 291.023 175.802 291.023C176.541 291.023 177.187 291.175 177.741 291.478C178.295 291.776 178.726 292.231 179.034 292.842C179.341 293.448 179.495 294.215 179.495 295.143V302.074H177.819V295.256C177.819 294.399 177.596 293.732 177.151 293.253C176.706 292.77 176.096 292.529 175.319 292.529C174.784 292.529 174.306 292.645 173.884 292.877C173.468 293.109 173.139 293.448 172.897 293.893C172.656 294.338 172.535 294.877 172.535 295.512ZM186.99 302.302C185.967 302.302 185.086 302.06 184.348 301.577C183.609 301.094 183.041 300.429 182.643 299.582C182.246 298.734 182.047 297.766 182.047 296.677C182.047 295.569 182.25 294.591 182.657 293.743C183.069 292.891 183.642 292.226 184.376 291.748C185.115 291.265 185.977 291.023 186.961 291.023C187.728 291.023 188.42 291.165 189.035 291.449C189.651 291.734 190.155 292.131 190.548 292.643C190.941 293.154 191.185 293.751 191.28 294.432H189.603C189.476 293.935 189.192 293.495 188.751 293.111C188.316 292.723 187.728 292.529 186.99 292.529C186.336 292.529 185.764 292.699 185.271 293.04C184.783 293.377 184.402 293.852 184.128 294.468C183.858 295.079 183.723 295.796 183.723 296.62C183.723 297.463 183.855 298.197 184.121 298.822C184.39 299.447 184.769 299.932 185.257 300.278C185.749 300.623 186.327 300.796 186.99 300.796C187.425 300.796 187.821 300.72 188.176 300.569C188.531 300.417 188.832 300.199 189.078 299.915C189.324 299.631 189.499 299.29 189.603 298.893H191.28C191.185 299.537 190.951 300.117 190.576 300.633C190.207 301.144 189.717 301.551 189.106 301.854C188.5 302.153 187.795 302.302 186.99 302.302ZM198.304 302.302C197.253 302.302 196.346 302.07 195.584 301.606C194.826 301.137 194.241 300.484 193.829 299.645C193.422 298.803 193.219 297.823 193.219 296.705C193.219 295.588 193.422 294.603 193.829 293.751C194.241 292.894 194.814 292.226 195.548 291.748C196.287 291.265 197.148 291.023 198.133 291.023C198.701 291.023 199.263 291.118 199.817 291.307C200.371 291.497 200.875 291.805 201.329 292.231C201.784 292.652 202.146 293.211 202.416 293.907C202.686 294.603 202.821 295.46 202.821 296.478V297.188H194.412V295.739H201.116C201.116 295.124 200.993 294.574 200.747 294.092C200.505 293.609 200.16 293.227 199.71 292.948C199.265 292.669 198.739 292.529 198.133 292.529C197.466 292.529 196.888 292.695 196.4 293.026C195.917 293.353 195.546 293.779 195.285 294.305C195.025 294.83 194.895 295.394 194.895 295.995V296.961C194.895 297.785 195.037 298.483 195.321 299.056C195.61 299.624 196.01 300.057 196.521 300.356C197.032 300.649 197.627 300.796 198.304 300.796C198.744 300.796 199.142 300.735 199.497 300.611C199.857 300.484 200.167 300.294 200.427 300.043C200.688 299.788 200.889 299.47 201.031 299.092L202.65 299.546C202.48 300.095 202.193 300.578 201.791 300.995C201.389 301.407 200.891 301.729 200.299 301.961C199.708 302.188 199.042 302.302 198.304 302.302ZM209.49 302.302C208.581 302.302 207.778 302.072 207.082 301.613C206.386 301.149 205.842 300.495 205.449 299.653C205.056 298.805 204.859 297.804 204.859 296.648C204.859 295.502 205.056 294.508 205.449 293.665C205.842 292.823 206.389 292.172 207.089 291.712C207.79 291.253 208.6 291.023 209.518 291.023C210.228 291.023 210.79 291.142 211.201 291.378C211.618 291.61 211.935 291.876 212.153 292.174C212.376 292.467 212.549 292.709 212.672 292.898H212.814V287.529H214.49V302.074H212.871V300.398H212.672C212.549 300.597 212.373 300.848 212.146 301.151C211.919 301.449 211.594 301.717 211.173 301.954C210.752 302.186 210.191 302.302 209.49 302.302ZM209.717 300.796C210.389 300.796 210.958 300.621 211.422 300.27C211.886 299.915 212.238 299.425 212.48 298.8C212.721 298.171 212.842 297.444 212.842 296.62C212.842 295.806 212.724 295.093 212.487 294.482C212.25 293.867 211.9 293.388 211.436 293.047C210.972 292.702 210.399 292.529 209.717 292.529C209.007 292.529 208.415 292.711 207.942 293.076C207.473 293.436 207.12 293.926 206.883 294.546C206.651 295.162 206.535 295.853 206.535 296.62C206.535 297.396 206.654 298.102 206.89 298.736C207.132 299.366 207.487 299.868 207.956 300.242C208.429 300.611 209.016 300.796 209.717 300.796ZM223.645 287.529H225.747L230.69 299.603H230.861L235.804 287.529H237.906V302.074H236.258V291.023H236.116L231.571 302.074H229.98L225.434 291.023H225.292V302.074H223.645V287.529ZM245.784 302.302C244.733 302.302 243.826 302.07 243.064 301.606C242.306 301.137 241.722 300.484 241.31 299.645C240.903 298.803 240.699 297.823 240.699 296.705C240.699 295.588 240.903 294.603 241.31 293.751C241.722 292.894 242.295 292.226 243.029 291.748C243.767 291.265 244.629 291.023 245.614 291.023C246.182 291.023 246.743 291.118 247.297 291.307C247.851 291.497 248.355 291.805 248.81 292.231C249.264 292.652 249.627 293.211 249.896 293.907C250.166 294.603 250.301 295.46 250.301 296.478V297.188H241.892V295.739H248.597C248.597 295.124 248.474 294.574 248.227 294.092C247.986 293.609 247.64 293.227 247.19 292.948C246.745 292.669 246.22 292.529 245.614 292.529C244.946 292.529 244.369 292.695 243.881 293.026C243.398 293.353 243.026 293.779 242.766 294.305C242.505 294.83 242.375 295.394 242.375 295.995V296.961C242.375 297.785 242.517 298.483 242.801 299.056C243.09 299.624 243.49 300.057 244.002 300.356C244.513 300.649 245.107 300.796 245.784 300.796C246.225 300.796 246.622 300.735 246.977 300.611C247.337 300.484 247.647 300.294 247.908 300.043C248.168 299.788 248.369 299.47 248.511 299.092L250.131 299.546C249.96 300.095 249.674 300.578 249.271 300.995C248.869 301.407 248.372 301.729 247.78 301.961C247.188 302.188 246.523 302.302 245.784 302.302ZM260.578 293.609L259.073 294.035C258.978 293.784 258.838 293.54 258.654 293.303C258.474 293.062 258.227 292.863 257.915 292.707C257.602 292.55 257.202 292.472 256.715 292.472C256.047 292.472 255.491 292.626 255.046 292.934C254.605 293.237 254.385 293.623 254.385 294.092C254.385 294.508 254.537 294.837 254.84 295.079C255.143 295.32 255.616 295.521 256.26 295.682L257.879 296.08C258.855 296.317 259.582 296.679 260.06 297.167C260.538 297.65 260.777 298.272 260.777 299.035C260.777 299.66 260.597 300.218 260.237 300.711C259.882 301.203 259.385 301.592 258.746 301.876C258.107 302.16 257.363 302.302 256.516 302.302C255.403 302.302 254.482 302.06 253.753 301.577C253.024 301.094 252.562 300.389 252.368 299.461L253.959 299.063C254.11 299.65 254.397 300.091 254.818 300.384C255.244 300.678 255.801 300.824 256.487 300.824C257.269 300.824 257.889 300.659 258.348 300.327C258.812 299.991 259.044 299.589 259.044 299.12C259.044 298.741 258.912 298.424 258.646 298.168C258.381 297.908 257.974 297.714 257.425 297.586L255.607 297.16C254.608 296.923 253.874 296.556 253.405 296.059C252.941 295.557 252.709 294.93 252.709 294.177C252.709 293.561 252.882 293.017 253.227 292.543C253.578 292.07 254.054 291.698 254.655 291.428C255.261 291.158 255.948 291.023 256.715 291.023C257.794 291.023 258.642 291.26 259.257 291.734C259.878 292.207 260.318 292.832 260.578 293.609ZM271.027 293.609L269.522 294.035C269.427 293.784 269.287 293.54 269.103 293.303C268.923 293.062 268.677 292.863 268.364 292.707C268.052 292.55 267.652 292.472 267.164 292.472C266.496 292.472 265.94 292.626 265.495 292.934C265.054 293.237 264.834 293.623 264.834 294.092C264.834 294.508 264.986 294.837 265.289 295.079C265.592 295.32 266.065 295.521 266.709 295.682L268.329 296.08C269.304 296.317 270.031 296.679 270.509 297.167C270.987 297.65 271.226 298.272 271.226 299.035C271.226 299.66 271.046 300.218 270.687 300.711C270.331 301.203 269.834 301.592 269.195 301.876C268.556 302.16 267.813 302.302 266.965 302.302C265.852 302.302 264.931 302.06 264.202 301.577C263.473 301.094 263.011 300.389 262.817 299.461L264.408 299.063C264.56 299.65 264.846 300.091 265.268 300.384C265.694 300.678 266.25 300.824 266.937 300.824C267.718 300.824 268.338 300.659 268.797 300.327C269.261 299.991 269.493 299.589 269.493 299.12C269.493 298.741 269.361 298.424 269.096 298.168C268.831 297.908 268.423 297.714 267.874 297.586L266.056 297.16C265.057 296.923 264.323 296.556 263.854 296.059C263.39 295.557 263.158 294.93 263.158 294.177C263.158 293.561 263.331 293.017 263.677 292.543C264.027 292.07 264.503 291.698 265.104 291.428C265.71 291.158 266.397 291.023 267.164 291.023C268.243 291.023 269.091 291.26 269.706 291.734C270.327 292.207 270.767 292.832 271.027 293.609ZM276.96 302.33C276.268 302.33 275.641 302.2 275.078 301.94C274.514 301.674 274.067 301.293 273.735 300.796C273.404 300.294 273.238 299.688 273.238 298.978C273.238 298.353 273.361 297.846 273.607 297.458C273.854 297.065 274.183 296.757 274.595 296.535C275.007 296.312 275.461 296.146 275.958 296.038C276.46 295.924 276.964 295.834 277.471 295.768C278.134 295.682 278.671 295.618 279.083 295.576C279.5 295.529 279.803 295.45 279.992 295.342C280.186 295.233 280.284 295.043 280.284 294.773V294.717C280.284 294.016 280.092 293.471 279.708 293.083C279.329 292.695 278.754 292.501 277.982 292.501C277.182 292.501 276.555 292.676 276.1 293.026C275.646 293.377 275.326 293.751 275.141 294.148L273.551 293.58C273.835 292.917 274.213 292.401 274.687 292.032C275.165 291.658 275.686 291.397 276.249 291.251C276.818 291.099 277.376 291.023 277.926 291.023C278.276 291.023 278.678 291.066 279.133 291.151C279.592 291.232 280.035 291.4 280.461 291.655C280.892 291.911 281.249 292.297 281.534 292.813C281.818 293.329 281.96 294.02 281.96 294.887V302.074H280.284V300.597H280.198C280.085 300.834 279.895 301.087 279.63 301.357C279.365 301.627 279.012 301.857 278.572 302.046C278.132 302.235 277.594 302.33 276.96 302.33ZM277.215 300.824C277.878 300.824 278.437 300.694 278.891 300.434C279.351 300.173 279.696 299.837 279.928 299.425C280.165 299.013 280.284 298.58 280.284 298.126V296.592C280.212 296.677 280.056 296.755 279.815 296.826C279.578 296.892 279.303 296.951 278.991 297.003C278.683 297.051 278.382 297.093 278.089 297.131C277.8 297.164 277.566 297.193 277.386 297.217C276.95 297.273 276.543 297.366 276.164 297.493C275.79 297.617 275.487 297.804 275.255 298.055C275.028 298.301 274.914 298.637 274.914 299.063C274.914 299.645 275.13 300.086 275.561 300.384C275.996 300.678 276.548 300.824 277.215 300.824ZM289.422 306.393C288.613 306.393 287.917 306.288 287.334 306.08C286.752 305.877 286.267 305.607 285.878 305.27C285.495 304.939 285.189 304.584 284.962 304.205L286.297 303.268C286.449 303.467 286.641 303.694 286.873 303.949C287.105 304.21 287.422 304.435 287.824 304.624C288.232 304.818 288.764 304.915 289.422 304.915C290.303 304.915 291.03 304.702 291.603 304.276C292.176 303.85 292.462 303.182 292.462 302.273V300.057H292.32C292.197 300.256 292.022 300.502 291.795 300.796C291.572 301.085 291.25 301.343 290.829 301.57C290.412 301.793 289.848 301.904 289.138 301.904C288.258 301.904 287.467 301.696 286.766 301.279C286.07 300.862 285.518 300.256 285.111 299.461C284.709 298.665 284.508 297.699 284.508 296.563C284.508 295.446 284.704 294.473 285.097 293.644C285.49 292.811 286.037 292.167 286.738 291.712C287.438 291.253 288.248 291.023 289.167 291.023C289.877 291.023 290.44 291.142 290.857 291.378C291.278 291.61 291.6 291.876 291.823 292.174C292.05 292.467 292.225 292.709 292.349 292.898H292.519V291.165H294.138V302.387C294.138 303.324 293.925 304.087 293.499 304.674C293.078 305.266 292.509 305.699 291.795 305.974C291.084 306.253 290.294 306.393 289.422 306.393ZM289.366 300.398C290.038 300.398 290.606 300.244 291.07 299.937C291.534 299.629 291.887 299.186 292.128 298.609C292.37 298.031 292.491 297.34 292.491 296.535C292.491 295.749 292.372 295.055 292.135 294.454C291.899 293.852 291.548 293.381 291.084 293.04C290.62 292.699 290.047 292.529 289.366 292.529C288.655 292.529 288.063 292.709 287.59 293.069C287.121 293.429 286.768 293.912 286.532 294.518C286.3 295.124 286.184 295.796 286.184 296.535C286.184 297.292 286.302 297.962 286.539 298.545C286.78 299.122 287.135 299.577 287.604 299.908C288.078 300.235 288.665 300.398 289.366 300.398ZM301.78 302.302C300.729 302.302 299.822 302.07 299.06 301.606C298.303 301.137 297.718 300.484 297.306 299.645C296.899 298.803 296.695 297.823 296.695 296.705C296.695 295.588 296.899 294.603 297.306 293.751C297.718 292.894 298.291 292.226 299.025 291.748C299.763 291.265 300.625 291.023 301.61 291.023C302.178 291.023 302.739 291.118 303.293 291.307C303.847 291.497 304.351 291.805 304.806 292.231C305.26 292.652 305.623 293.211 305.893 293.907C306.162 294.603 306.297 295.46 306.297 296.478V297.188H297.888V295.739H304.593C304.593 295.124 304.47 294.574 304.224 294.092C303.982 293.609 303.636 293.227 303.187 292.948C302.741 292.669 302.216 292.529 301.61 292.529C300.942 292.529 300.365 292.695 299.877 293.026C299.394 293.353 299.022 293.779 298.762 294.305C298.501 294.83 298.371 295.394 298.371 295.995V296.961C298.371 297.785 298.513 298.483 298.797 299.056C299.086 299.624 299.486 300.057 299.998 300.356C300.509 300.649 301.103 300.796 301.78 300.796C302.221 300.796 302.618 300.735 302.974 300.611C303.333 300.484 303.643 300.294 303.904 300.043C304.164 299.788 304.366 299.47 304.508 299.092L306.127 299.546C305.956 300.095 305.67 300.578 305.268 300.995C304.865 301.407 304.368 301.729 303.776 301.961C303.184 302.188 302.519 302.302 301.78 302.302ZM319.983 297.529H321.915L323.535 299.66L323.961 300.228L326.375 303.438H324.444L322.853 301.307L322.455 300.768L319.983 297.529ZM326.972 294.802C326.972 296.336 326.695 297.662 326.141 298.779C325.587 299.896 324.827 300.758 323.861 301.364C322.895 301.97 321.792 302.273 320.552 302.273C319.311 302.273 318.208 301.97 317.242 301.364C316.276 300.758 315.516 299.896 314.962 298.779C314.408 297.662 314.131 296.336 314.131 294.802C314.131 293.268 314.408 291.942 314.962 290.824C315.516 289.707 316.276 288.845 317.242 288.239C318.208 287.633 319.311 287.33 320.552 287.33C321.792 287.33 322.895 287.633 323.861 288.239C324.827 288.845 325.587 289.707 326.141 290.824C326.695 291.942 326.972 293.268 326.972 294.802ZM325.268 294.802C325.268 293.542 325.057 292.479 324.635 291.613C324.219 290.746 323.653 290.091 322.938 289.645C322.228 289.2 321.432 288.978 320.552 288.978C319.671 288.978 318.873 289.2 318.158 289.645C317.448 290.091 316.882 290.746 316.461 291.613C316.044 292.479 315.836 293.542 315.836 294.802C315.836 296.061 316.044 297.124 316.461 297.991C316.882 298.857 317.448 299.513 318.158 299.958C318.873 300.403 319.671 300.626 320.552 300.626C321.432 300.626 322.228 300.403 322.938 299.958C323.653 299.513 324.219 298.857 324.635 297.991C325.057 297.124 325.268 296.061 325.268 294.802ZM336.581 297.614V291.165H338.258V302.074H336.581V300.228H336.468C336.212 300.782 335.814 301.253 335.275 301.641C334.735 302.025 334.053 302.217 333.229 302.217C332.547 302.217 331.941 302.067 331.411 301.769C330.881 301.466 330.464 301.011 330.161 300.405C329.858 299.795 329.706 299.025 329.706 298.097V291.165H331.383V297.984C331.383 298.779 331.605 299.413 332.05 299.887C332.5 300.36 333.073 300.597 333.769 300.597C334.186 300.597 334.609 300.491 335.04 300.278C335.476 300.065 335.84 299.738 336.134 299.297C336.432 298.857 336.581 298.296 336.581 297.614ZM345.901 302.302C344.85 302.302 343.944 302.07 343.181 301.606C342.424 301.137 341.839 300.484 341.427 299.645C341.02 298.803 340.816 297.823 340.816 296.705C340.816 295.588 341.02 294.603 341.427 293.751C341.839 292.894 342.412 292.226 343.146 291.748C343.884 291.265 344.746 291.023 345.731 291.023C346.299 291.023 346.86 291.118 347.414 291.307C347.968 291.497 348.472 291.805 348.927 292.231C349.382 292.652 349.744 293.211 350.014 293.907C350.284 294.603 350.418 295.46 350.418 296.478V297.188H342.009V295.739H348.714C348.714 295.124 348.591 294.574 348.345 294.092C348.103 293.609 347.757 293.227 347.308 292.948C346.863 292.669 346.337 292.529 345.731 292.529C345.063 292.529 344.486 292.695 343.998 293.026C343.515 293.353 343.143 293.779 342.883 294.305C342.623 294.83 342.492 295.394 342.492 295.995V296.961C342.492 297.785 342.634 298.483 342.918 299.056C343.207 299.624 343.607 300.057 344.119 300.356C344.63 300.649 345.224 300.796 345.901 300.796C346.342 300.796 346.739 300.735 347.095 300.611C347.454 300.484 347.765 300.294 348.025 300.043C348.285 299.788 348.487 299.47 348.629 299.092L350.248 299.546C350.078 300.095 349.791 300.578 349.389 300.995C348.986 301.407 348.489 301.729 347.897 301.961C347.305 302.188 346.64 302.302 345.901 302.302ZM359.843 297.614V291.165H361.519V302.074H359.843V300.228H359.73C359.474 300.782 359.076 301.253 358.536 301.641C357.997 302.025 357.315 302.217 356.491 302.217C355.809 302.217 355.203 302.067 354.673 301.769C354.142 301.466 353.726 301.011 353.423 300.405C353.12 299.795 352.968 299.025 352.968 298.097V291.165H354.644V297.984C354.644 298.779 354.867 299.413 355.312 299.887C355.762 300.36 356.335 300.597 357.031 300.597C357.447 300.597 357.871 300.491 358.302 300.278C358.738 300.065 359.102 299.738 359.396 299.297C359.694 298.857 359.843 298.296 359.843 297.614ZM364.589 302.074V291.165H366.265V302.074H364.589ZM365.442 289.347C365.115 289.347 364.833 289.236 364.596 289.013C364.364 288.791 364.248 288.523 364.248 288.211C364.248 287.898 364.364 287.631 364.596 287.408C364.833 287.186 365.115 287.074 365.442 287.074C365.768 287.074 366.048 287.186 366.28 287.408C366.516 287.631 366.635 287.898 366.635 288.211C366.635 288.523 366.516 288.791 366.28 289.013C366.048 289.236 365.768 289.347 365.442 289.347ZM371.011 295.512V302.074H369.335V291.165H370.955V292.87H371.097C371.352 292.316 371.741 291.871 372.261 291.535C372.782 291.194 373.455 291.023 374.279 291.023C375.017 291.023 375.663 291.175 376.217 291.478C376.771 291.776 377.202 292.231 377.51 292.842C377.818 293.448 377.972 294.215 377.972 295.143V302.074H376.296V295.256C376.296 294.399 376.073 293.732 375.628 293.253C375.183 292.77 374.572 292.529 373.796 292.529C373.261 292.529 372.782 292.645 372.361 292.877C371.944 293.109 371.615 293.448 371.374 293.893C371.132 294.338 371.011 294.877 371.011 295.512ZM385.438 306.393C384.628 306.393 383.932 306.288 383.35 306.08C382.768 305.877 382.282 305.607 381.894 305.27C381.51 304.939 381.205 304.584 380.978 304.205L382.313 303.268C382.465 303.467 382.656 303.694 382.888 303.949C383.12 304.21 383.438 304.435 383.84 304.624C384.247 304.818 384.78 304.915 385.438 304.915C386.319 304.915 387.045 304.702 387.618 304.276C388.191 303.85 388.478 303.182 388.478 302.273V300.057H388.336C388.213 300.256 388.037 300.502 387.81 300.796C387.588 301.085 387.266 301.343 386.844 301.57C386.428 301.793 385.864 301.904 385.154 301.904C384.273 301.904 383.482 301.696 382.782 301.279C382.086 300.862 381.534 300.256 381.127 299.461C380.724 298.665 380.523 297.699 380.523 296.563C380.523 295.446 380.72 294.473 381.113 293.644C381.506 292.811 382.053 292.167 382.753 291.712C383.454 291.253 384.264 291.023 385.182 291.023C385.893 291.023 386.456 291.142 386.873 291.378C387.294 291.61 387.616 291.876 387.839 292.174C388.066 292.467 388.241 292.709 388.364 292.898H388.535V291.165H390.154V302.387C390.154 303.324 389.941 304.087 389.515 304.674C389.093 305.266 388.525 305.699 387.81 305.974C387.1 306.253 386.309 306.393 385.438 306.393ZM385.381 300.398C386.054 300.398 386.622 300.244 387.086 299.937C387.55 299.629 387.902 299.186 388.144 298.609C388.385 298.031 388.506 297.34 388.506 296.535C388.506 295.749 388.388 295.055 388.151 294.454C387.914 293.852 387.564 293.381 387.1 293.04C386.636 292.699 386.063 292.529 385.381 292.529C384.671 292.529 384.079 292.709 383.606 293.069C383.137 293.429 382.784 293.912 382.547 294.518C382.315 295.124 382.199 295.796 382.199 296.535C382.199 297.292 382.318 297.962 382.554 298.545C382.796 299.122 383.151 299.577 383.62 299.908C384.093 300.235 384.68 300.398 385.381 300.398ZM399.074 302.074V287.529H403.989C405.13 287.529 406.063 287.735 406.787 288.147C407.517 288.554 408.056 289.106 408.407 289.802C408.757 290.498 408.932 291.274 408.932 292.131C408.932 292.988 408.757 293.767 408.407 294.468C408.061 295.169 407.526 295.727 406.802 296.144C406.077 296.556 405.149 296.762 404.018 296.762H400.495V295.199H403.961C404.742 295.199 405.369 295.065 405.843 294.795C406.316 294.525 406.66 294.16 406.873 293.701C407.09 293.237 407.199 292.714 407.199 292.131C407.199 291.549 407.09 291.028 406.873 290.569C406.66 290.11 406.314 289.75 405.836 289.489C405.357 289.224 404.723 289.092 403.932 289.092H400.836V302.074H399.074ZM411.542 302.074V291.165H413.162V292.813H413.275C413.474 292.273 413.834 291.835 414.355 291.499C414.876 291.163 415.463 290.995 416.116 290.995C416.239 290.995 416.393 290.997 416.578 291.002C416.763 291.007 416.902 291.014 416.997 291.023V292.728C416.94 292.714 416.81 292.692 416.606 292.664C416.407 292.631 416.197 292.614 415.974 292.614C415.444 292.614 414.97 292.726 414.554 292.948C414.142 293.166 413.815 293.469 413.574 293.857C413.337 294.241 413.219 294.679 413.219 295.171V302.074H411.542ZM423.084 302.302C422.099 302.302 421.235 302.067 420.491 301.599C419.753 301.13 419.175 300.474 418.758 299.631C418.346 298.788 418.14 297.804 418.14 296.677C418.14 295.54 418.346 294.548 418.758 293.701C419.175 292.853 419.753 292.195 420.491 291.726C421.235 291.258 422.099 291.023 423.084 291.023C424.068 291.023 424.93 291.258 425.669 291.726C426.412 292.195 426.99 292.853 427.402 293.701C427.818 294.548 428.027 295.54 428.027 296.677C428.027 297.804 427.818 298.788 427.402 299.631C426.99 300.474 426.412 301.13 425.669 301.599C424.93 302.067 424.068 302.302 423.084 302.302ZM423.084 300.796C423.832 300.796 424.447 300.604 424.93 300.221C425.413 299.837 425.771 299.333 426.003 298.708C426.235 298.083 426.351 297.406 426.351 296.677C426.351 295.948 426.235 295.268 426.003 294.638C425.771 294.009 425.413 293.5 424.93 293.111C424.447 292.723 423.832 292.529 423.084 292.529C422.335 292.529 421.72 292.723 421.237 293.111C420.754 293.5 420.397 294.009 420.165 294.638C419.933 295.268 419.817 295.948 419.817 296.677C419.817 297.406 419.933 298.083 420.165 298.708C420.397 299.333 420.754 299.837 421.237 300.221C421.72 300.604 422.335 300.796 423.084 300.796ZM435.33 291.165V292.586H429.676V291.165H435.33ZM431.324 288.552H433V298.949C433 299.423 433.069 299.778 433.206 300.015C433.348 300.247 433.528 300.403 433.746 300.484C433.968 300.559 434.203 300.597 434.449 300.597C434.634 300.597 434.785 300.588 434.904 300.569C435.022 300.545 435.117 300.526 435.188 300.512L435.529 302.018C435.415 302.06 435.256 302.103 435.053 302.145C434.849 302.193 434.591 302.217 434.279 302.217C433.805 302.217 433.341 302.115 432.886 301.911C432.437 301.708 432.063 301.397 431.764 300.981C431.471 300.564 431.324 300.038 431.324 299.404V288.552ZM442.166 302.302C441.181 302.302 440.317 302.067 439.573 301.599C438.835 301.13 438.257 300.474 437.84 299.631C437.428 298.788 437.222 297.804 437.222 296.677C437.222 295.54 437.428 294.548 437.84 293.701C438.257 292.853 438.835 292.195 439.573 291.726C440.317 291.258 441.181 291.023 442.166 291.023C443.15 291.023 444.012 291.258 444.751 291.726C445.494 292.195 446.072 292.853 446.484 293.701C446.9 294.548 447.109 295.54 447.109 296.677C447.109 297.804 446.9 298.788 446.484 299.631C446.072 300.474 445.494 301.13 444.751 301.599C444.012 302.067 443.15 302.302 442.166 302.302ZM442.166 300.796C442.914 300.796 443.529 300.604 444.012 300.221C444.495 299.837 444.853 299.333 445.085 298.708C445.317 298.083 445.433 297.406 445.433 296.677C445.433 295.948 445.317 295.268 445.085 294.638C444.853 294.009 444.495 293.5 444.012 293.111C443.529 292.723 442.914 292.529 442.166 292.529C441.418 292.529 440.802 292.723 440.319 293.111C439.836 293.5 439.479 294.009 439.247 294.638C439.015 295.268 438.899 295.948 438.899 296.677C438.899 297.406 439.015 298.083 439.247 298.708C439.479 299.333 439.836 299.837 440.319 300.221C440.802 300.604 441.418 300.796 442.166 300.796ZM454.099 302.302C453.076 302.302 452.196 302.06 451.457 301.577C450.719 301.094 450.15 300.429 449.753 299.582C449.355 298.734 449.156 297.766 449.156 296.677C449.156 295.569 449.36 294.591 449.767 293.743C450.179 292.891 450.752 292.226 451.486 291.748C452.224 291.265 453.086 291.023 454.071 291.023C454.838 291.023 455.529 291.165 456.145 291.449C456.76 291.734 457.264 292.131 457.657 292.643C458.05 293.154 458.294 293.751 458.389 294.432H456.713C456.585 293.935 456.301 293.495 455.861 293.111C455.425 292.723 454.838 292.529 454.099 292.529C453.446 292.529 452.873 292.699 452.38 293.04C451.893 293.377 451.512 293.852 451.237 294.468C450.967 295.079 450.832 295.796 450.832 296.62C450.832 297.463 450.965 298.197 451.23 298.822C451.5 299.447 451.879 299.932 452.366 300.278C452.859 300.623 453.436 300.796 454.099 300.796C454.535 300.796 454.93 300.72 455.285 300.569C455.64 300.417 455.941 300.199 456.187 299.915C456.433 299.631 456.609 299.29 456.713 298.893H458.389C458.294 299.537 458.06 300.117 457.686 300.633C457.317 301.144 456.826 301.551 456.216 301.854C455.61 302.153 454.904 302.302 454.099 302.302ZM465.271 302.302C464.286 302.302 463.422 302.067 462.679 301.599C461.94 301.13 461.362 300.474 460.946 299.631C460.534 298.788 460.328 297.804 460.328 296.677C460.328 295.54 460.534 294.548 460.946 293.701C461.362 292.853 461.94 292.195 462.679 291.726C463.422 291.258 464.286 291.023 465.271 291.023C466.256 291.023 467.118 291.258 467.856 291.726C468.6 292.195 469.177 292.853 469.589 293.701C470.006 294.548 470.214 295.54 470.214 296.677C470.214 297.804 470.006 298.788 469.589 299.631C469.177 300.474 468.6 301.13 467.856 301.599C467.118 302.067 466.256 302.302 465.271 302.302ZM465.271 300.796C466.019 300.796 466.635 300.604 467.118 300.221C467.601 299.837 467.958 299.333 468.19 298.708C468.422 298.083 468.538 297.406 468.538 296.677C468.538 295.948 468.422 295.268 468.19 294.638C467.958 294.009 467.601 293.5 467.118 293.111C466.635 292.723 466.019 292.529 465.271 292.529C464.523 292.529 463.907 292.723 463.424 293.111C462.942 293.5 462.584 294.009 462.352 294.638C462.12 295.268 462.004 295.948 462.004 296.677C462.004 297.406 462.12 298.083 462.352 298.708C462.584 299.333 462.942 299.837 463.424 300.221C463.907 300.604 464.523 300.796 465.271 300.796ZM474.449 287.529V302.074H472.773V287.529H474.449Z" fill="black"/>
</svg>
